<svg width="12.870544" height="12.870621" viewBox="0 0 12.8705 12.8706" fill="none" xmlns="http://www.w3.org/2000/svg" xmlns:xlink="http://www.w3.org/1999/xlink">
	<desc>
			Created with Pixso.
	</desc>
	<defs/>
	<path id="Vector" d="M12.2245 12.2246L9.4303 9.43034M10.5461 7.76044C10.8048 7.13594 10.9379 6.46661 10.9379 5.79066C10.9379 5.11472 10.8048 4.44539 10.5461 3.82089C10.2874 3.1964 9.90826 2.62895 9.4303 2.15099C8.95233 1.67302 8.38495 1.29387 7.76044 1.0352C7.13593 0.77652 6.46661 0.643387 5.79065 0.643387C5.11469 0.643387 4.44537 0.77652 3.82086 1.0352C3.19635 1.29387 2.62897 1.67302 2.151 2.15099C1.18567 3.11629 0.643372 4.42552 0.643372 5.79066C0.643372 7.15581 1.18567 8.46504 2.151 9.43034C3.11627 10.3956 4.42548 10.9379 5.79065 10.9379C7.15576 10.9379 8.46503 10.3956 9.4303 9.43034C9.90826 8.95236 10.2874 8.38493 10.5461 7.76044Z" stroke="#5F5F5F" stroke-opacity="1.000000" stroke-width="1.286786" stroke-linejoin="round"/>
</svg>
